# xmcd CD database file
#
# Track frame offsets:
#	150
#	30346
#	60546
#	85380
#	112205
#
# Disc length: 1762 seconds
#
# Revision: 0
# Processed by: cddbd v1.5.2PL0 Copyright (c) Steve Scherf et al.
# Submitted via: CDex 1.75
#
DISCID=3a06e005
DTITLE=Endgegner - Videogame-Jazz
DYEAR=2015
DGENRE=Jazz
TTITLE0=Ahead On Our Way
TTITLE1=Mystic Invasion
TTITLE2=Into The Thick Of It
TTITLE3=Zebes
TTITLE4=Lost Woods
EXTD=YEAR: 2015
EXTT0=
EXTT1=
EXTT2=
EXTT3=
EXTT4=
PLAYORDER=
